<mxfile host="app.diagrams.net" agent="Mozilla/5.0 (X11; Linux x86_64; rv:128.0) Gecko/20100101 Firefox/128.0" version="27.1.4">
  <diagram name="Page-1" id="86TXZIkBcmZtcGNGMsAb">
    <mxGraphModel dx="2209" dy="1221" grid="1" gridSize="10" guides="1" tooltips="1" connect="1" arrows="1" fold="1" page="1" pageScale="1" pageWidth="827" pageHeight="1169" math="0" shadow="0">
      <root>
        <mxCell id="0" />
        <mxCell id="1" parent="0" />
        <mxCell id="_q9y22rmMF6U52sb9orw-47" value="" style="rounded=0;whiteSpace=wrap;html=1;fillColor=#F19C99;fillStyle=dashed;strokeWidth=2;strokeColor=#F19C99;" vertex="1" parent="1">
          <mxGeometry x="560" y="850" width="200" height="70" as="geometry" />
        </mxCell>
        <mxCell id="_q9y22rmMF6U52sb9orw-46" value="" style="rounded=0;whiteSpace=wrap;html=1;fillColor=#F19C99;fillStyle=dashed;strokeWidth=2;strokeColor=#F19C99;" vertex="1" parent="1">
          <mxGeometry x="320" y="850" width="200" height="70" as="geometry" />
        </mxCell>
        <mxCell id="_q9y22rmMF6U52sb9orw-45" value="" style="rounded=0;whiteSpace=wrap;html=1;fillColor=#F19C99;fillStyle=dashed;strokeWidth=2;strokeColor=#F19C99;" vertex="1" parent="1">
          <mxGeometry x="80" y="850" width="200" height="70" as="geometry" />
        </mxCell>
        <mxCell id="_q9y22rmMF6U52sb9orw-44" value="" style="rounded=0;whiteSpace=wrap;html=1;fillColor=#CDA2BE;fillStyle=dashed;strokeWidth=2;strokeColor=#CDA2BE;" vertex="1" parent="1">
          <mxGeometry x="280" y="610" width="280" height="180" as="geometry" />
        </mxCell>
        <mxCell id="_q9y22rmMF6U52sb9orw-43" value="" style="rounded=0;whiteSpace=wrap;html=1;fillColor=#A9C4EB;fillStyle=dashed;strokeWidth=2;strokeColor=#A9C4EB;" vertex="1" parent="1">
          <mxGeometry x="280" y="400" width="280" height="180" as="geometry" />
        </mxCell>
        <mxCell id="_q9y22rmMF6U52sb9orw-42" value="" style="rounded=0;whiteSpace=wrap;html=1;fillColor=#FFE599;fillStyle=dashed;strokeWidth=2;strokeColor=#FFE599;" vertex="1" parent="1">
          <mxGeometry x="560" y="160" width="200" height="180" as="geometry" />
        </mxCell>
        <mxCell id="_q9y22rmMF6U52sb9orw-41" value="" style="rounded=0;whiteSpace=wrap;html=1;fillColor=#B9E0A5;fillStyle=dashed;strokeWidth=2;strokeColor=#B9E0A5;" vertex="1" parent="1">
          <mxGeometry x="320" y="160" width="200" height="180" as="geometry" />
        </mxCell>
        <mxCell id="_q9y22rmMF6U52sb9orw-40" value="" style="rounded=0;whiteSpace=wrap;html=1;fillColor=#A9C4EB;fillStyle=dashed;strokeWidth=2;strokeColor=#A9C4EB;" vertex="1" parent="1">
          <mxGeometry x="80" y="160" width="200" height="180" as="geometry" />
        </mxCell>
        <mxCell id="_q9y22rmMF6U52sb9orw-1" value="&lt;b&gt;&lt;font style=&quot;font-size: 14px;&quot;&gt;sc::opts&lt;/font&gt;&lt;/b&gt;" style="rounded=0;whiteSpace=wrap;html=1;fillColor=#d5e8d4;strokeColor=none;" vertex="1" parent="1">
          <mxGeometry x="320" y="160" width="200" height="30" as="geometry" />
        </mxCell>
        <mxCell id="_q9y22rmMF6U52sb9orw-3" value="&lt;font style=&quot;font-size: 14px;&quot;&gt;&lt;b&gt;sc::opts_ptrscan&lt;/b&gt;&lt;/font&gt;" style="rounded=0;whiteSpace=wrap;html=1;fillColor=#dae8fc;strokeColor=none;" vertex="1" parent="1">
          <mxGeometry x="80" y="160" width="200" height="30" as="geometry" />
        </mxCell>
        <mxCell id="_q9y22rmMF6U52sb9orw-7" value="&lt;i&gt;MemCry&lt;/i&gt; data" style="rounded=0;whiteSpace=wrap;html=1;fillColor=#d5e8d4;strokeColor=#82b366;" vertex="1" parent="1">
          <mxGeometry x="340" y="210" width="160" height="20" as="geometry" />
        </mxCell>
        <mxCell id="_q9y22rmMF6U52sb9orw-8" value="&lt;font style=&quot;font-size: 14px;&quot;&gt;&lt;b&gt;sc::map_area_set&lt;/b&gt;&lt;/font&gt;" style="rounded=0;whiteSpace=wrap;html=1;fillColor=#fff2cc;strokeColor=none;" vertex="1" parent="1">
          <mxGeometry x="560" y="160" width="200" height="30" as="geometry" />
        </mxCell>
        <mxCell id="_q9y22rmMF6U52sb9orw-9" value="scan constraints" style="rounded=0;whiteSpace=wrap;html=1;fillColor=#d5e8d4;strokeColor=#82b366;" vertex="1" parent="1">
          <mxGeometry x="340" y="240" width="160" height="20" as="geometry" />
        </mxCell>
        <mxCell id="_q9y22rmMF6U52sb9orw-10" value="file I/O settings" style="rounded=0;whiteSpace=wrap;html=1;fillColor=#d5e8d4;strokeColor=#82b366;" vertex="1" parent="1">
          <mxGeometry x="340" y="270" width="160" height="20" as="geometry" />
        </mxCell>
        <mxCell id="_q9y22rmMF6U52sb9orw-11" value="&lt;b&gt;...&lt;/b&gt;" style="rounded=0;whiteSpace=wrap;html=1;fillColor=#d5e8d4;strokeColor=#82b366;" vertex="1" parent="1">
          <mxGeometry x="340" y="300" width="160" height="20" as="geometry" />
        </mxCell>
        <mxCell id="_q9y22rmMF6U52sb9orw-13" value="target address" style="rounded=0;whiteSpace=wrap;html=1;fillColor=#dae8fc;strokeColor=#6c8ebf;" vertex="1" parent="1">
          <mxGeometry x="100" y="210" width="160" height="20" as="geometry" />
        </mxCell>
        <mxCell id="_q9y22rmMF6U52sb9orw-14" value="pointer alignment" style="rounded=0;whiteSpace=wrap;html=1;fillColor=#dae8fc;strokeColor=#6c8ebf;" vertex="1" parent="1">
          <mxGeometry x="100" y="240" width="160" height="20" as="geometry" />
        </mxCell>
        <mxCell id="_q9y22rmMF6U52sb9orw-15" value="preset offsets" style="rounded=0;whiteSpace=wrap;html=1;fillColor=#dae8fc;strokeColor=#6c8ebf;" vertex="1" parent="1">
          <mxGeometry x="100" y="270" width="160" height="20" as="geometry" />
        </mxCell>
        <mxCell id="_q9y22rmMF6U52sb9orw-17" value="&lt;b&gt;...&lt;/b&gt;" style="rounded=0;whiteSpace=wrap;html=1;fillColor=#dae8fc;strokeColor=#6c8ebf;" vertex="1" parent="1">
          <mxGeometry x="100" y="300" width="160" height="20" as="geometry" />
        </mxCell>
        <mxCell id="_q9y22rmMF6U52sb9orw-18" value="vm_area subset" style="rounded=0;whiteSpace=wrap;html=1;fillColor=#fff2cc;strokeColor=#d6b656;" vertex="1" parent="1">
          <mxGeometry x="580" y="210" width="160" height="20" as="geometry" />
        </mxCell>
        <mxCell id="_q9y22rmMF6U52sb9orw-19" value="&lt;font style=&quot;font-size: 14px;&quot;&gt;&lt;b&gt;sc::ptrscan&lt;/b&gt;&lt;/font&gt;" style="rounded=0;whiteSpace=wrap;html=1;fillColor=#dae8fc;strokeColor=none;" vertex="1" parent="1">
          <mxGeometry x="280" y="400" width="280" height="30" as="geometry" />
        </mxCell>
        <mxCell id="_q9y22rmMF6U52sb9orw-20" value="pointer chain tree" style="rounded=0;whiteSpace=wrap;html=1;fillColor=#dae8fc;strokeColor=#6c8ebf;" vertex="1" parent="1">
          <mxGeometry x="300" y="450" width="240" height="20" as="geometry" />
        </mxCell>
        <mxCell id="_q9y22rmMF6U52sb9orw-21" value="serialised pointer chains" style="rounded=0;whiteSpace=wrap;html=1;fillColor=#dae8fc;strokeColor=#6c8ebf;" vertex="1" parent="1">
          <mxGeometry x="300" y="480" width="240" height="20" as="geometry" />
        </mxCell>
        <mxCell id="_q9y22rmMF6U52sb9orw-23" value="scan cache" style="rounded=0;whiteSpace=wrap;html=1;fillColor=#dae8fc;strokeColor=#6c8ebf;" vertex="1" parent="1">
          <mxGeometry x="300" y="510" width="240" height="20" as="geometry" />
        </mxCell>
        <mxCell id="_q9y22rmMF6U52sb9orw-25" value="&lt;b&gt;...&lt;/b&gt;" style="rounded=0;whiteSpace=wrap;html=1;fillColor=#dae8fc;strokeColor=#6c8ebf;" vertex="1" parent="1">
          <mxGeometry x="300" y="540" width="240" height="20" as="geometry" />
        </mxCell>
        <mxCell id="_q9y22rmMF6U52sb9orw-26" value="&lt;font style=&quot;font-size: 14px;&quot;&gt;&lt;b&gt;sc::worker_pool&lt;/b&gt;&lt;/font&gt;" style="rounded=0;whiteSpace=wrap;html=1;fillColor=#e1d5e7;strokeColor=none;" vertex="1" parent="1">
          <mxGeometry x="280" y="610" width="280" height="30" as="geometry" />
        </mxCell>
        <mxCell id="_q9y22rmMF6U52sb9orw-27" value="worker objects" style="rounded=0;whiteSpace=wrap;html=1;fillColor=#e1d5e7;strokeColor=#9673a6;" vertex="1" parent="1">
          <mxGeometry x="300" y="660" width="240" height="20" as="geometry" />
        </mxCell>
        <mxCell id="_q9y22rmMF6U52sb9orw-28" value="worker scan sets" style="rounded=0;whiteSpace=wrap;html=1;fillColor=#e1d5e7;strokeColor=#9673a6;" vertex="1" parent="1">
          <mxGeometry x="300" y="720" width="240" height="20" as="geometry" />
        </mxCell>
        <mxCell id="_q9y22rmMF6U52sb9orw-29" value="synchronisation data" style="rounded=0;whiteSpace=wrap;html=1;fillColor=#e1d5e7;strokeColor=#9673a6;" vertex="1" parent="1">
          <mxGeometry x="300" y="690" width="240" height="20" as="geometry" />
        </mxCell>
        <mxCell id="_q9y22rmMF6U52sb9orw-32" value="&lt;b&gt;...&lt;/b&gt;" style="rounded=0;whiteSpace=wrap;html=1;fillColor=#e1d5e7;strokeColor=#9673a6;" vertex="1" parent="1">
          <mxGeometry x="300" y="750" width="240" height="20" as="geometry" />
        </mxCell>
        <mxCell id="_q9y22rmMF6U52sb9orw-33" value="&lt;font style=&quot;font-size: 14px;&quot;&gt;&lt;b&gt;sc::worker&lt;/b&gt;&lt;/font&gt;" style="rounded=0;whiteSpace=wrap;html=1;fillColor=#f8cecc;strokeColor=none;" vertex="1" parent="1">
          <mxGeometry x="80" y="850" width="200" height="30" as="geometry" />
        </mxCell>
        <mxCell id="_q9y22rmMF6U52sb9orw-35" value="&lt;b&gt;&lt;i&gt;opaque&lt;/i&gt;&lt;/b&gt;" style="text;html=1;align=center;verticalAlign=middle;whiteSpace=wrap;rounded=0;fontColor=#333333;fillColor=#f5f5f5;strokeColor=#666666;" vertex="1" parent="1">
          <mxGeometry x="100" y="890" width="160" height="20" as="geometry" />
        </mxCell>
        <mxCell id="_q9y22rmMF6U52sb9orw-36" value="&lt;font style=&quot;font-size: 14px;&quot;&gt;&lt;b&gt;sc::worker&lt;/b&gt;&lt;/font&gt;" style="rounded=0;whiteSpace=wrap;html=1;fillColor=#f8cecc;strokeColor=none;" vertex="1" parent="1">
          <mxGeometry x="320" y="850" width="200" height="30" as="geometry" />
        </mxCell>
        <mxCell id="_q9y22rmMF6U52sb9orw-37" value="&lt;b&gt;&lt;i&gt;opaque&lt;/i&gt;&lt;/b&gt;" style="text;html=1;align=center;verticalAlign=middle;whiteSpace=wrap;rounded=0;fontColor=#333333;fillColor=#f5f5f5;strokeColor=#666666;" vertex="1" parent="1">
          <mxGeometry x="340" y="890" width="160" height="20" as="geometry" />
        </mxCell>
        <mxCell id="_q9y22rmMF6U52sb9orw-38" value="&lt;font style=&quot;font-size: 14px;&quot;&gt;&lt;b&gt;sc::worker&lt;/b&gt;&lt;/font&gt;" style="rounded=0;whiteSpace=wrap;html=1;fillColor=#f8cecc;strokeColor=none;" vertex="1" parent="1">
          <mxGeometry x="560" y="850" width="200" height="30" as="geometry" />
        </mxCell>
        <mxCell id="_q9y22rmMF6U52sb9orw-39" value="&lt;b&gt;&lt;i&gt;opaque&lt;/i&gt;&lt;/b&gt;" style="text;html=1;align=center;verticalAlign=middle;whiteSpace=wrap;rounded=0;fontColor=#333333;fillColor=#f5f5f5;strokeColor=#666666;" vertex="1" parent="1">
          <mxGeometry x="580" y="890" width="160" height="20" as="geometry" />
        </mxCell>
        <mxCell id="_q9y22rmMF6U52sb9orw-50" value="" style="endArrow=none;html=1;rounded=0;" edge="1" parent="1">
          <mxGeometry width="50" height="50" relative="1" as="geometry">
            <mxPoint x="179.71" y="160" as="sourcePoint" />
            <mxPoint x="180" y="100" as="targetPoint" />
          </mxGeometry>
        </mxCell>
        <mxCell id="_q9y22rmMF6U52sb9orw-52" value="" style="endArrow=none;html=1;rounded=0;" edge="1" parent="1">
          <mxGeometry width="50" height="50" relative="1" as="geometry">
            <mxPoint x="419.95" y="400" as="sourcePoint" />
            <mxPoint x="419.65999999999997" y="340" as="targetPoint" />
          </mxGeometry>
        </mxCell>
        <mxCell id="_q9y22rmMF6U52sb9orw-53" value="" style="endArrow=none;html=1;rounded=0;" edge="1" parent="1">
          <mxGeometry width="50" height="50" relative="1" as="geometry">
            <mxPoint x="659.95" y="370" as="sourcePoint" />
            <mxPoint x="659.6600000000001" y="340" as="targetPoint" />
          </mxGeometry>
        </mxCell>
        <mxCell id="_q9y22rmMF6U52sb9orw-55" value="" style="endArrow=none;html=1;rounded=0;" edge="1" parent="1">
          <mxGeometry width="50" height="50" relative="1" as="geometry">
            <mxPoint x="420" y="130" as="sourcePoint" />
            <mxPoint x="620" y="130" as="targetPoint" />
          </mxGeometry>
        </mxCell>
        <mxCell id="_q9y22rmMF6U52sb9orw-67" value="" style="endArrow=none;html=1;rounded=0;" edge="1" parent="1">
          <mxGeometry width="50" height="50" relative="1" as="geometry">
            <mxPoint x="480" y="820" as="sourcePoint" />
            <mxPoint x="660" y="820" as="targetPoint" />
          </mxGeometry>
        </mxCell>
        <mxCell id="_q9y22rmMF6U52sb9orw-78" value="" style="endArrow=none;html=1;rounded=0;" edge="1" parent="1">
          <mxGeometry width="50" height="50" relative="1" as="geometry">
            <mxPoint x="700" y="100" as="sourcePoint" />
            <mxPoint x="179.75" y="100" as="targetPoint" />
          </mxGeometry>
        </mxCell>
        <mxCell id="_q9y22rmMF6U52sb9orw-86" value="" style="endArrow=none;html=1;rounded=0;" edge="1" parent="1">
          <mxGeometry width="50" height="50" relative="1" as="geometry">
            <mxPoint x="360" y="370" as="sourcePoint" />
            <mxPoint x="179.82999999999998" y="370" as="targetPoint" />
          </mxGeometry>
        </mxCell>
        <mxCell id="_q9y22rmMF6U52sb9orw-98" value="" style="endArrow=none;html=1;rounded=0;" edge="1" parent="1">
          <mxGeometry width="50" height="50" relative="1" as="geometry">
            <mxPoint x="700" y="160" as="sourcePoint" />
            <mxPoint x="700" y="100" as="targetPoint" />
          </mxGeometry>
        </mxCell>
        <mxCell id="_q9y22rmMF6U52sb9orw-100" value="" style="endArrow=none;html=1;rounded=0;" edge="1" parent="1">
          <mxGeometry width="50" height="50" relative="1" as="geometry">
            <mxPoint x="179.95" y="370" as="sourcePoint" />
            <mxPoint x="179.95" y="340" as="targetPoint" />
          </mxGeometry>
        </mxCell>
        <mxCell id="_q9y22rmMF6U52sb9orw-101" value="" style="endArrow=none;html=1;rounded=0;" edge="1" parent="1">
          <mxGeometry width="50" height="50" relative="1" as="geometry">
            <mxPoint x="620" y="160" as="sourcePoint" />
            <mxPoint x="620" y="130" as="targetPoint" />
          </mxGeometry>
        </mxCell>
        <mxCell id="_q9y22rmMF6U52sb9orw-102" value="" style="endArrow=none;html=1;rounded=0;" edge="1" parent="1">
          <mxGeometry width="50" height="50" relative="1" as="geometry">
            <mxPoint x="419.71000000000004" y="160" as="sourcePoint" />
            <mxPoint x="420" y="130" as="targetPoint" />
          </mxGeometry>
        </mxCell>
        <mxCell id="_q9y22rmMF6U52sb9orw-113" value="" style="endArrow=none;html=1;rounded=0;" edge="1" parent="1">
          <mxGeometry width="50" height="50" relative="1" as="geometry">
            <mxPoint x="420" y="610" as="sourcePoint" />
            <mxPoint x="419.71" y="580" as="targetPoint" />
          </mxGeometry>
        </mxCell>
        <mxCell id="_q9y22rmMF6U52sb9orw-116" value="" style="endArrow=none;html=1;rounded=0;" edge="1" parent="1">
          <mxGeometry width="50" height="50" relative="1" as="geometry">
            <mxPoint x="420" y="850" as="sourcePoint" />
            <mxPoint x="420" y="790" as="targetPoint" />
          </mxGeometry>
        </mxCell>
        <mxCell id="_q9y22rmMF6U52sb9orw-118" value="" style="endArrow=none;html=1;rounded=0;" edge="1" parent="1">
          <mxGeometry width="50" height="50" relative="1" as="geometry">
            <mxPoint x="660" y="850" as="sourcePoint" />
            <mxPoint x="659.71" y="820" as="targetPoint" />
          </mxGeometry>
        </mxCell>
        <mxCell id="_q9y22rmMF6U52sb9orw-119" value="" style="endArrow=none;html=1;rounded=0;" edge="1" parent="1">
          <mxGeometry width="50" height="50" relative="1" as="geometry">
            <mxPoint x="180" y="850" as="sourcePoint" />
            <mxPoint x="179.70999999999998" y="820" as="targetPoint" />
          </mxGeometry>
        </mxCell>
        <mxCell id="_q9y22rmMF6U52sb9orw-132" value="" style="endArrow=classic;html=1;rounded=0;" edge="1" parent="1">
          <mxGeometry width="50" height="50" relative="1" as="geometry">
            <mxPoint x="419.58" y="370" as="sourcePoint" />
            <mxPoint x="419.58" y="390" as="targetPoint" />
          </mxGeometry>
        </mxCell>
        <mxCell id="_q9y22rmMF6U52sb9orw-134" value="" style="endArrow=classic;html=1;rounded=0;" edge="1" parent="1">
          <mxGeometry width="50" height="50" relative="1" as="geometry">
            <mxPoint x="419.66" y="580" as="sourcePoint" />
            <mxPoint x="419.66" y="600" as="targetPoint" />
          </mxGeometry>
        </mxCell>
        <mxCell id="_q9y22rmMF6U52sb9orw-136" value="" style="endArrow=classic;html=1;rounded=0;" edge="1" parent="1">
          <mxGeometry width="50" height="50" relative="1" as="geometry">
            <mxPoint x="419.58" y="820" as="sourcePoint" />
            <mxPoint x="419.58" y="840" as="targetPoint" />
          </mxGeometry>
        </mxCell>
        <mxCell id="_q9y22rmMF6U52sb9orw-137" value="" style="endArrow=classic;html=1;rounded=0;" edge="1" parent="1">
          <mxGeometry width="50" height="50" relative="1" as="geometry">
            <mxPoint x="659.58" y="820" as="sourcePoint" />
            <mxPoint x="659.58" y="840" as="targetPoint" />
          </mxGeometry>
        </mxCell>
        <mxCell id="_q9y22rmMF6U52sb9orw-138" value="" style="endArrow=classic;html=1;rounded=0;" edge="1" parent="1">
          <mxGeometry width="50" height="50" relative="1" as="geometry">
            <mxPoint x="179.58000000000004" y="820" as="sourcePoint" />
            <mxPoint x="179.58000000000004" y="840" as="targetPoint" />
          </mxGeometry>
        </mxCell>
        <mxCell id="_q9y22rmMF6U52sb9orw-140" value="" style="endArrow=classic;html=1;rounded=0;" edge="1" parent="1">
          <mxGeometry width="50" height="50" relative="1" as="geometry">
            <mxPoint x="360" y="370" as="sourcePoint" />
            <mxPoint x="360" y="390" as="targetPoint" />
          </mxGeometry>
        </mxCell>
        <mxCell id="_q9y22rmMF6U52sb9orw-141" value="" style="endArrow=classic;html=1;rounded=0;" edge="1" parent="1">
          <mxGeometry width="50" height="50" relative="1" as="geometry">
            <mxPoint x="480" y="370" as="sourcePoint" />
            <mxPoint x="480" y="390" as="targetPoint" />
          </mxGeometry>
        </mxCell>
        <mxCell id="_q9y22rmMF6U52sb9orw-142" value="" style="endArrow=none;html=1;rounded=0;" edge="1" parent="1">
          <mxGeometry width="50" height="50" relative="1" as="geometry">
            <mxPoint x="660.1700000000001" y="370" as="sourcePoint" />
            <mxPoint x="480" y="370" as="targetPoint" />
          </mxGeometry>
        </mxCell>
        <mxCell id="_q9y22rmMF6U52sb9orw-143" value="" style="endArrow=none;html=1;rounded=0;" edge="1" parent="1">
          <mxGeometry width="50" height="50" relative="1" as="geometry">
            <mxPoint x="360" y="400" as="sourcePoint" />
            <mxPoint x="360" y="370" as="targetPoint" />
          </mxGeometry>
        </mxCell>
        <mxCell id="_q9y22rmMF6U52sb9orw-144" value="" style="endArrow=none;html=1;rounded=0;" edge="1" parent="1">
          <mxGeometry width="50" height="50" relative="1" as="geometry">
            <mxPoint x="480" y="400" as="sourcePoint" />
            <mxPoint x="480" y="370" as="targetPoint" />
          </mxGeometry>
        </mxCell>
        <mxCell id="_q9y22rmMF6U52sb9orw-146" value="" style="endArrow=classic;html=1;rounded=0;" edge="1" parent="1">
          <mxGeometry width="50" height="50" relative="1" as="geometry">
            <mxPoint x="620" y="130" as="sourcePoint" />
            <mxPoint x="620" y="150" as="targetPoint" />
          </mxGeometry>
        </mxCell>
        <mxCell id="_q9y22rmMF6U52sb9orw-147" value="" style="endArrow=classic;html=1;rounded=0;" edge="1" parent="1">
          <mxGeometry width="50" height="50" relative="1" as="geometry">
            <mxPoint x="700" y="130" as="sourcePoint" />
            <mxPoint x="700" y="150" as="targetPoint" />
          </mxGeometry>
        </mxCell>
        <mxCell id="_q9y22rmMF6U52sb9orw-148" value="" style="endArrow=classic;html=1;rounded=0;" edge="1" parent="1">
          <mxGeometry width="50" height="50" relative="1" as="geometry">
            <mxPoint x="419.58" y="820" as="sourcePoint" />
            <mxPoint x="419.58" y="800" as="targetPoint" />
          </mxGeometry>
        </mxCell>
        <mxCell id="_q9y22rmMF6U52sb9orw-149" value="" style="endArrow=none;html=1;rounded=0;" edge="1" parent="1">
          <mxGeometry width="50" height="50" relative="1" as="geometry">
            <mxPoint x="180" y="820" as="sourcePoint" />
            <mxPoint x="360" y="820" as="targetPoint" />
          </mxGeometry>
        </mxCell>
        <mxCell id="_q9y22rmMF6U52sb9orw-150" value="" style="endArrow=none;html=1;rounded=0;" edge="1" parent="1">
          <mxGeometry width="50" height="50" relative="1" as="geometry">
            <mxPoint x="480" y="790" as="sourcePoint" />
            <mxPoint x="480" y="820" as="targetPoint" />
          </mxGeometry>
        </mxCell>
        <mxCell id="_q9y22rmMF6U52sb9orw-152" value="" style="endArrow=none;html=1;rounded=0;" edge="1" parent="1">
          <mxGeometry width="50" height="50" relative="1" as="geometry">
            <mxPoint x="360" y="790" as="sourcePoint" />
            <mxPoint x="360" y="820" as="targetPoint" />
          </mxGeometry>
        </mxCell>
        <mxCell id="_q9y22rmMF6U52sb9orw-153" value="" style="endArrow=classic;html=1;rounded=0;" edge="1" parent="1">
          <mxGeometry width="50" height="50" relative="1" as="geometry">
            <mxPoint x="480" y="820" as="sourcePoint" />
            <mxPoint x="480" y="800" as="targetPoint" />
          </mxGeometry>
        </mxCell>
        <mxCell id="_q9y22rmMF6U52sb9orw-154" value="" style="endArrow=classic;html=1;rounded=0;" edge="1" parent="1">
          <mxGeometry width="50" height="50" relative="1" as="geometry">
            <mxPoint x="360" y="820" as="sourcePoint" />
            <mxPoint x="360" y="800" as="targetPoint" />
          </mxGeometry>
        </mxCell>
        <mxCell id="_q9y22rmMF6U52sb9orw-155" value="" style="endArrow=none;html=1;rounded=0;" edge="1" parent="1">
          <mxGeometry width="50" height="50" relative="1" as="geometry">
            <mxPoint x="660" y="980" as="sourcePoint" />
            <mxPoint x="659.58" y="920" as="targetPoint" />
          </mxGeometry>
        </mxCell>
        <mxCell id="_q9y22rmMF6U52sb9orw-156" value="" style="endArrow=none;html=1;rounded=0;" edge="1" parent="1">
          <mxGeometry width="50" height="50" relative="1" as="geometry">
            <mxPoint x="420" y="980" as="sourcePoint" />
            <mxPoint x="419.58" y="920" as="targetPoint" />
          </mxGeometry>
        </mxCell>
        <mxCell id="_q9y22rmMF6U52sb9orw-157" value="" style="endArrow=none;html=1;rounded=0;" edge="1" parent="1">
          <mxGeometry width="50" height="50" relative="1" as="geometry">
            <mxPoint x="180" y="980" as="sourcePoint" />
            <mxPoint x="179.58" y="920" as="targetPoint" />
          </mxGeometry>
        </mxCell>
        <mxCell id="_q9y22rmMF6U52sb9orw-158" value="" style="endArrow=classic;html=1;rounded=0;" edge="1" parent="1">
          <mxGeometry width="50" height="50" relative="1" as="geometry">
            <mxPoint x="659.58" y="950" as="sourcePoint" />
            <mxPoint x="659.58" y="930" as="targetPoint" />
          </mxGeometry>
        </mxCell>
        <mxCell id="_q9y22rmMF6U52sb9orw-159" value="" style="endArrow=classic;html=1;rounded=0;" edge="1" parent="1">
          <mxGeometry width="50" height="50" relative="1" as="geometry">
            <mxPoint x="419.58" y="950" as="sourcePoint" />
            <mxPoint x="419.58" y="930" as="targetPoint" />
          </mxGeometry>
        </mxCell>
        <mxCell id="_q9y22rmMF6U52sb9orw-160" value="" style="endArrow=classic;html=1;rounded=0;" edge="1" parent="1">
          <mxGeometry width="50" height="50" relative="1" as="geometry">
            <mxPoint x="179.58" y="950" as="sourcePoint" />
            <mxPoint x="179.58" y="930" as="targetPoint" />
          </mxGeometry>
        </mxCell>
        <mxCell id="_q9y22rmMF6U52sb9orw-161" value="" style="endArrow=classic;html=1;rounded=0;" edge="1" parent="1">
          <mxGeometry width="50" height="50" relative="1" as="geometry">
            <mxPoint x="179.57999999999998" y="950" as="sourcePoint" />
            <mxPoint x="179.57999999999998" y="970" as="targetPoint" />
          </mxGeometry>
        </mxCell>
        <mxCell id="_q9y22rmMF6U52sb9orw-162" value="" style="endArrow=classic;html=1;rounded=0;" edge="1" parent="1">
          <mxGeometry width="50" height="50" relative="1" as="geometry">
            <mxPoint x="419.58000000000004" y="950" as="sourcePoint" />
            <mxPoint x="419.58000000000004" y="970" as="targetPoint" />
          </mxGeometry>
        </mxCell>
        <mxCell id="_q9y22rmMF6U52sb9orw-163" value="" style="endArrow=classic;html=1;rounded=0;" edge="1" parent="1">
          <mxGeometry width="50" height="50" relative="1" as="geometry">
            <mxPoint x="659.58" y="950" as="sourcePoint" />
            <mxPoint x="659.58" y="970" as="targetPoint" />
          </mxGeometry>
        </mxCell>
        <mxCell id="_q9y22rmMF6U52sb9orw-164" value="&lt;font style=&quot;font-size: 13px;&quot;&gt;&lt;b&gt;&lt;font style=&quot;font-size: 14px;&quot;&gt;&lt;i&gt;MemCry&lt;/i&gt; virtual interface&lt;/font&gt;&lt;br&gt;&lt;/b&gt;&lt;/font&gt;" style="rounded=0;whiteSpace=wrap;html=1;fillColor=#f5f5f5;fontColor=#333333;strokeColor=#666666;" vertex="1" parent="1">
          <mxGeometry x="80" y="980" width="680" height="40" as="geometry" />
        </mxCell>
        <mxCell id="_q9y22rmMF6U52sb9orw-165" value="&lt;font style=&quot;font-size: 14px; color: rgb(51, 51, 51);&quot;&gt;&lt;b&gt;procfs interface&lt;/b&gt;&lt;/font&gt;" style="rounded=0;whiteSpace=wrap;html=1;fillColor=#bac8d3;strokeColor=#23445d;" vertex="1" parent="1">
          <mxGeometry x="80" y="1080" width="200" height="40" as="geometry" />
        </mxCell>
        <mxCell id="_q9y22rmMF6U52sb9orw-166" value="&lt;font style=&quot;font-size: 14px; color: rgb(51, 51, 51);&quot;&gt;&lt;b&gt;&lt;i&gt;KrnCry&amp;nbsp; &lt;/i&gt;(driver) interface&lt;/b&gt;&lt;/font&gt;" style="rounded=0;whiteSpace=wrap;html=1;fillColor=#bac8d3;strokeColor=#23445d;" vertex="1" parent="1">
          <mxGeometry x="320" y="1080" width="200" height="40" as="geometry" />
        </mxCell>
        <mxCell id="_q9y22rmMF6U52sb9orw-168" value="&lt;font style=&quot;font-size: 14px; color: rgb(51, 51, 51);&quot;&gt;&lt;b&gt;user-defined interface&lt;/b&gt;&lt;/font&gt;" style="rounded=0;whiteSpace=wrap;html=1;fillColor=#bac8d3;strokeColor=#23445d;" vertex="1" parent="1">
          <mxGeometry x="560" y="1080" width="200" height="40" as="geometry" />
        </mxCell>
        <mxCell id="_q9y22rmMF6U52sb9orw-169" value="" style="endArrow=none;html=1;rounded=0;" edge="1" parent="1">
          <mxGeometry width="50" height="50" relative="1" as="geometry">
            <mxPoint x="179.99999999999994" y="1080" as="sourcePoint" />
            <mxPoint x="179.57999999999998" y="1020" as="targetPoint" />
          </mxGeometry>
        </mxCell>
        <mxCell id="_q9y22rmMF6U52sb9orw-170" value="" style="endArrow=none;html=1;rounded=0;" edge="1" parent="1">
          <mxGeometry width="50" height="50" relative="1" as="geometry">
            <mxPoint x="420" y="1080" as="sourcePoint" />
            <mxPoint x="419.58000000000004" y="1020" as="targetPoint" />
          </mxGeometry>
        </mxCell>
        <mxCell id="_q9y22rmMF6U52sb9orw-171" value="" style="endArrow=none;html=1;rounded=0;" edge="1" parent="1">
          <mxGeometry width="50" height="50" relative="1" as="geometry">
            <mxPoint x="660" y="1080" as="sourcePoint" />
            <mxPoint x="659.58" y="1020" as="targetPoint" />
          </mxGeometry>
        </mxCell>
        <mxCell id="_q9y22rmMF6U52sb9orw-172" value="" style="endArrow=classic;html=1;rounded=0;" edge="1" parent="1">
          <mxGeometry width="50" height="50" relative="1" as="geometry">
            <mxPoint x="179.57999999999998" y="1050" as="sourcePoint" />
            <mxPoint x="179.57999999999998" y="1070" as="targetPoint" />
          </mxGeometry>
        </mxCell>
        <mxCell id="_q9y22rmMF6U52sb9orw-173" value="" style="endArrow=classic;html=1;rounded=0;" edge="1" parent="1">
          <mxGeometry width="50" height="50" relative="1" as="geometry">
            <mxPoint x="419.58000000000004" y="1050" as="sourcePoint" />
            <mxPoint x="419.58000000000004" y="1070" as="targetPoint" />
          </mxGeometry>
        </mxCell>
        <mxCell id="_q9y22rmMF6U52sb9orw-174" value="" style="endArrow=classic;html=1;rounded=0;" edge="1" parent="1">
          <mxGeometry width="50" height="50" relative="1" as="geometry">
            <mxPoint x="659.58" y="1050" as="sourcePoint" />
            <mxPoint x="659.58" y="1070" as="targetPoint" />
          </mxGeometry>
        </mxCell>
        <mxCell id="_q9y22rmMF6U52sb9orw-175" value="" style="endArrow=classic;html=1;rounded=0;" edge="1" parent="1">
          <mxGeometry width="50" height="50" relative="1" as="geometry">
            <mxPoint x="659.58" y="1050" as="sourcePoint" />
            <mxPoint x="659.58" y="1030" as="targetPoint" />
          </mxGeometry>
        </mxCell>
        <mxCell id="_q9y22rmMF6U52sb9orw-176" value="" style="endArrow=classic;html=1;rounded=0;" edge="1" parent="1">
          <mxGeometry width="50" height="50" relative="1" as="geometry">
            <mxPoint x="419.58" y="1050" as="sourcePoint" />
            <mxPoint x="419.58" y="1030" as="targetPoint" />
          </mxGeometry>
        </mxCell>
        <mxCell id="_q9y22rmMF6U52sb9orw-177" value="" style="endArrow=classic;html=1;rounded=0;" edge="1" parent="1">
          <mxGeometry width="50" height="50" relative="1" as="geometry">
            <mxPoint x="179.57999999999998" y="1050" as="sourcePoint" />
            <mxPoint x="179.57999999999998" y="1030" as="targetPoint" />
          </mxGeometry>
        </mxCell>
      </root>
    </mxGraphModel>
  </diagram>
</mxfile>
